# xmcd
#
# Track frame offsets:
#	150
#	11999
#	26966
#	38277
#	51858
#	66333
#	85595
#	98213
#	115347
#	133609
#	151892
#	176172
#	190716
#	205189
#	220924
#	239524
#
# Disc length: 3685 seconds
#
# Revision: 1
# Processed by: cddbd v1.5.2PL0 Copyright (c) Steve Scherf et al.
# Submitted via: audiograbber 1.83.01
#
DISCID=dd0e6310
DTITLE=Various Artist - Mitchell Creek Rock and Blues Festival 2016
DYEAR=1900
DGENRE=rock
TTITLE0=19 Twenty - Hips
TTITLE1=Bare Foot Alley - Two Women
TTITLE2=Chase The Sun - Living Free
TTITLE3=Claude Hay - I Love Hate You
TTITLE4=Collard Greens and Gravy - I Wanna Ramble
TTITLE5=Jesse Redwing - Crawling Up The Walls
TTITLE6=Juzzie Smith - Jamming
TTITLE7=Kate Lush - Groove Me
TTITLE8=Liza Ohlback - Gonna Be A Bad Day
TTITLE9=Swamp Thing - Voodoo Dow
TTITLE10=The Free Loves - Give Me Some
TTITLE11=The Gentle Enemies - Borracho
TTITLE12=Upsize - In To Nothing
TTITLE13=Urban Chiefs - Pretty Girls
TTITLE14=Buck Dean and The Green Lips - Yesterday's Spliff
TTITLE15=Zyke Blue - Hip Shake Thing
EXTD=
EXTT0=
EXTT1=
EXTT2=
EXTT3=
EXTT4=
EXTT5=
EXTT6=
EXTT7=
EXTT8=
EXTT9=
EXTT10=
EXTT11=
EXTT12=
EXTT13=
EXTT14=
EXTT15=
PLAYORDER=
